<svg width="32" height="32" viewBox="0 0 32 32" fill="none" xmlns="http://www.w3.org/2000/svg">
  <defs>
    <linearGradient id="gradient" x1="0%" y1="0%" x2="100%" y2="100%">
      <stop offset="0%" style="stop-color:#00d4ff;stop-opacity:1" />
      <stop offset="100%" style="stop-color:#0099cc;stop-opacity:1" />
    </linearGradient>
  </defs>
  
  <!-- Background circle -->
  <circle cx="16" cy="16" r="15" fill="url(#gradient)" stroke="rgba(255,255,255,0.2)" stroke-width="1"/>
  
  <!-- Cache layers (representing cache-augmented) -->
  <rect x="8" y="10" width="16" height="3" rx="1.5" fill="rgba(255,255,255,0.9)"/>
  <rect x="8" y="14.5" width="16" height="3" rx="1.5" fill="rgba(255,255,255,0.7)"/>
  <rect x="8" y="19" width="16" height="3" rx="1.5" fill="rgba(255,255,255,0.5)"/>
  
  <!-- AI/Generation symbol (stylized "G") -->
  <path d="M20 8 C22 8 24 10 24 12 L24 16 C24 18 22 20 20 20 L18 20 L18 17 L20 17 C20.5 17 21 16.5 21 16 L21 12 C21 11.5 20.5 11 20 11 L18 11 L18 8 L20 8 Z" fill="rgba(255,255,255,0.9)"/>
</svg>